<?xml version="1.0" encoding="UTF-8" standalone="no"?>
<svg
  xmlns="http://www.w3.org/2000/svg"
  version="1.1"
  width="14"
  height="14"
  id="svg2">
  <rect
    width="14"
    height="14"
    x="0"
    y="0"
    id="canvas"
    style="fill:none;stroke:none;visibility:hidden" />
  <path
    d="M 3,10 C 3,9 5,6 6.9763711,6.0000697 9,6 11,9 11,10 L 7,10 Z M 7,3 C 4,3 0,7 0,10 l 1,0 C 1,7 5,4 7,4 c 2,0 6,3 6,6 l 1,0 C 14,7 10,3 7,3 Z"
    style="fill:#ffffff;fill-opacity:1;fill-rule:evenodd;stroke:#ffffff;stroke-width:1.5;stroke-linejoin:round;stroke-opacity:0.8" />
  <path
    d="M 3,10 C 3,9 5,6 6.9763711,6.0000697 9,6 11,9 11,10 L 7,10 Z M 7,3 C 4,3 0,7 0,10 l 1,0 C 1,7 5,4 7,4 c 2,0 6,3 6,6 l 1,0 C 14,7 10,3 7,3 Z"
    style="fill:#000000;fill-opacity:1;fill-rule:evenodd;stroke:none"
    id="path4185" />
  </svg>
